<?xml version="1.0" encoding="utf-8"?>
<!-- Generator: Adobe Illustrator 25.4.1, SVG Export Plug-In . SVG Version: 6.00 Build 0)  -->
<svg version="1.1" id="레이어_1" xmlns="http://www.w3.org/2000/svg" xmlns:xlink="http://www.w3.org/1999/xlink" x="0px"
	 y="0px" viewBox="0 0 223.3 47.9" style="enable-background:new 0 0 223.3 47.9;" xml:space="preserve">
<g>
	<path d="M30.2,42.1L18.5,9.7H9.8v0.5c4.9,0,7.3,1.1,6.4,3.8L7.4,41c-1.6,4.9-1.7,5.9-7.4,5.9v0.5h13.1v-0.5c-5.8,0-6.1-1-4.6-5.9
		l1.9-6c0.2-0.7,0.9-1.7,2.9-1.7h10.8l-0.2-0.6c-1.1,0-2.6,0-2.6,0h-7.8c-1.7,0-1.8-1.2-1.6-2l5.4-16.6l6,16.6l0.7,2
		c0.7,0,1.3,0,1.4,0c0,0.2,0.1,0.4,0.1,0.6h-1.3l0.7,1.9l2.4,6.9c1.6,4.6,0.4,4.8-4.8,4.8v0.5h15.1v-0.5
		C32.1,46.9,31.9,46.6,30.2,42.1"/>
	<path d="M25.2,32.6c0,0-0.6,0-1.4,0l0.2,0.6h1.3C25.3,33.1,25.2,32.8,25.2,32.6"/>
	<path d="M47.4,24.4c4.4,0,5.3,0.3,3.8,4.8l-5.2,15.3l-5.6-15.3c-1.6-4.5-0.5-4.8,3.8-4.8v-0.5H32.2v0.5c4.4,0,4,0.4,5.7,4.8
		l6.9,18.7h0.8l6.4-18.7c1.6-4.5,1.7-4.8,5.6-4.8v-0.5H47.4V24.4z"/>
	<path d="M68.4,42.1V23.9h-7.2v0.5c4.3,0,4.7,0,4.7,4.8v12.9c0,4.7-0.4,4.8-4.7,4.8v0.5h11.9v-0.5C68.7,46.9,68.4,46.8,68.4,42.1"/>
	<path d="M95.5,33.5c-0.1-5.7-3.7-10.2-9.7-10.2c-6.2,0-10.3,4.9-10.3,12.2c0,7.3,4.1,12.3,10.6,12.3c4.5,0,8.6-4.2,8.9-8.1h-0.7
		c-0.3,3.1-3.7,7.4-8.2,7.4c-5.7,0-7.7-6.1-7.7-11.6c0-0.7,0-1.4,0.1-2H95.5z M85.8,23.9c4.8,0,6.5,5,6.7,8.9H78.7
		C79.2,28.2,81.4,23.9,85.8,23.9"/>
	<path d="M139.3,42.1V30.2c0-6-3.2-6.8-5.3-6.8c-4.6,0-7.1,7-8.2,13.6h-0.1v-6.8c0-6-3.2-6.8-5.3-6.8c-4.6,0-7.1,7-8.2,13.6h-0.1
		V23.9h-7.2v0.5c4.3,0,4.7,0,4.7,4.8v12.9c0,4.7-0.4,4.8-4.7,4.8v0.5h11.9v-0.5c-3.8,0-4.5,0-4.7-3c0.3-6.9,2.4-19.4,7.6-19.4
		c1.9,0,3.5,0.9,3.5,5.6v11.9c0,4.7-0.6,4.8-4.7,4.8v0.5h11.9v-0.5c-3.8,0-4.6,0-4.7-2.9c0.2-6.8,2.4-19.4,7.6-19.4
		c1.9,0,3.5,0.9,3.5,5.6v11.9c0,4.7-0.6,4.8-4.7,4.8v0.5H144v-0.5C139.5,46.9,139.3,46.8,139.3,42.1"/>
	<path d="M165.7,42.1V23.9h-7.2v0.5c3.8,0,4.5,0,4.7,3c-0.3,6.9-2.5,19.4-7.9,19.4c-1.6,0-4.1-0.5-4.1-5.6V23.9H144v0.5
		c4.6,0,4.7,0.1,4.7,4.8v11.9c0,6.5,4.1,6.8,5.8,6.8c4.9,0,7.4-7,8.6-13.6h0.1v13.1h7.2v-0.5C166.1,46.9,165.7,46.9,165.7,42.1
		 M163.2,33.4L163.2,33.4L163.2,33.4z"/>
	<path d="M218.6,42.1V30.2c0-6-3.2-6.8-5.3-6.8c-4.5,0-7,6.6-8.1,13H205V9.7h-7.2v0.5c4.3,0,4.7,0,4.7,4.8v27c0,4.7-0.4,4.8-4.7,4.8
		v0.5h11.9v-0.5c-3.8,0-4.5,0-4.7-3c0.3-6.9,2.4-19.4,7.6-19.4c1.9,0,3.5,0.9,3.5,5.6v11.9c0,4.7-0.6,4.8-4.7,4.8v0.5h11.9v-0.5
		C218.7,46.9,218.6,46.8,218.6,42.1"/>
	<path d="M66.4,16.7l0.6,0.6l0.6-0.7c0.3-0.4,0.7-0.7,1-1l0.6-0.5l-0.6-0.6c-0.3-0.3-0.6-0.6-0.9-0.9L67,12.9l-0.6,0.7
		c-0.3,0.3-0.5,0.6-0.8,0.8l-0.8,0.7l0.7,0.6C65.8,16,66.1,16.3,66.4,16.7"/>
	<path d="M192.5,47c-3.1,0-2.6-5-2.6-9.7v-6.1c0-5.7-2.9-7.8-7.5-7.8c-5.1,0-8.2,3.3-9.6,4.8l3,4.4l0.5-0.3
		c-3.1-4.8,1.4-8.4,5.9-8.4c4.1,0,5.1,3.2,5.1,7.3v1.5L173.3,37c0,4.4,1.2,10.8,6.5,10.8c3.8,0,6.1-5,7.4-9.2h0.2v3.3
		c0,3.3,1.2,6,4.6,6c2.5,0,3.9-1.6,4.7-4.4l-0.7-0.2C195.3,45.5,194.2,47,192.5,47 M187.4,35.8c-1.3,4.3-3.1,10.4-6.6,10.4
		c-4.6,0-4.9-7.6-4.9-9.1l11.5-3.8V35.8z"/>
	<polygon points="20.1,5 14.5,0 13.3,1.4 19.8,5.3 	"/>
</g>
</svg>
