<?xml version="1.0" encoding="utf-8"?>
<!-- Generator: Adobe Illustrator 27.1.1, SVG Export Plug-In . SVG Version: 6.00 Build 0)  -->
<svg version="1.1" id="레이어_1" xmlns="http://www.w3.org/2000/svg" xmlns:xlink="http://www.w3.org/1999/xlink" x="0px"
	 y="0px" viewBox="0 0 544.29 116.66" style="enable-background:new 0 0 544.29 116.66;" xml:space="preserve">
<style type="text/css">
	.st0{fill:#FFFFFF;}
</style>
<g>
	<path class="st0" d="M73.64,102.55L45.18,23.7h-21.4v1.26c11.82,0,17.72,2.75,15.66,9.18L18.09,99.91
		c-3.79,11.82-4.2,14.35-18.09,14.35v1.26h31.93v-1.26c-14.23,0-14.99-2.52-11.32-14.35l4.59-14.58c0.57-1.72,2.18-4.25,7.11-4.25
		h26.4l-0.55-1.5c-2.76,0.01-6.27,0.01-6.46,0.01H32.67c-4.25,0-4.48-2.98-3.9-4.82l13.08-40.52l14.58,40.52l1.75,4.81
		c1.75-0.01,3.19-0.02,3.29-0.03c0.07,0.51,0.14,1.03,0.32,1.53h-3.07l1.72,4.71l5.97,16.76c3.9,11.13,0.97,11.71-11.78,11.71v1.26
		h36.75v-1.26C78.3,114.26,77.65,113.57,73.64,102.55"/>
	<path class="st0" d="M61.47,79.56c-0.1,0.01-1.55,0.01-3.29,0.02l0.55,1.5h3.07C61.61,80.59,61.54,80.07,61.47,79.56"/>
	<path class="st0" d="M115.5,59.4c10.79,0,12.97,0.8,9.18,11.71l-12.74,37.18L98.4,71.11c-4.02-10.9-1.26-11.71,9.18-11.71v-1.26
		H78.54v1.26c10.79,0,9.87,1.03,13.77,11.71l16.76,45.57h1.84l15.61-45.57c3.79-11.02,4.25-11.71,13.77-11.71v-1.26H115.5V59.4z"/>
	<path class="st0" d="M166.84,102.55V58.14h-17.56v1.26c10.44,0,11.48,0,11.48,11.71v31.45c0,11.48-1.03,11.71-11.48,11.71v1.26
		h29.04v-1.26C167.53,114.26,166.84,114.03,166.84,102.55"/>
	<path class="st0" d="M232.73,81.78c-0.23-14-8.95-24.79-23.64-24.79c-15.03,0-25.02,11.94-25.02,29.73
		c0,17.79,9.99,30.07,25.94,30.07c11.02,0,21.01-10.22,21.81-19.86h-1.72c-0.8,7.57-9.07,18.02-20.09,18.14
		c-13.89,0.11-18.71-14.81-18.71-28.35c0-1.61,0.11-3.33,0.23-4.94H232.73z M209.08,58.37c11.71,0,15.84,12.17,16.3,21.69h-33.63
		C193.13,68.81,198.29,58.37,209.08,58.37"/>
	<path class="st0" d="M339.58,102.55V73.51c0-14.69-7.8-16.53-12.85-16.53c-11.25,0-17.22,16.99-19.97,33.05h-0.34V73.51
		c0-14.69-7.81-16.53-12.85-16.53c-11.25,0-17.22,16.99-19.97,33.05h-0.35V58.14h-17.56v1.26c10.44,0,11.48,0,11.48,11.71v31.45
		c0,11.48-1.03,11.71-11.48,11.71v1.26h29.04v-1.26c-9.18,0-11.02-0.11-11.36-7.23c0.69-16.76,5.97-47.17,18.48-47.17
		c4.71,0,8.49,2.29,8.49,13.66v29.04c0,11.48-1.49,11.71-11.48,11.71v1.26h29.04v-1.26c-9.3,0-11.14-0.11-11.36-7
		c0.57-16.64,5.97-47.4,18.48-47.4c4.71,0,8.5,2.29,8.5,13.66v29.04c0,11.48-1.49,11.71-11.48,11.71v1.26h29.03v-1.26
		C339.92,114.26,339.58,114.03,339.58,102.55"/>
	<path class="st0" d="M403.91,102.55V58.14h-17.56v1.26c9.18,0,11.02,0.12,11.36,7.23c-0.69,16.76-6.08,47.17-19.28,47.17
		c-3.9,0-9.99-1.15-9.99-13.66V58.14h-17.56v1.26c11.13,0,11.48,0.23,11.48,11.71v29.04c0,15.84,10.1,16.53,14.12,16.53
		c11.94,0,18.14-16.99,21.01-33.05h0.34v31.91h17.56v-1.26C404.95,114.26,403.91,114.26,403.91,102.55 M397.83,81.32V81.2V81.32z"/>
	<path class="st0" d="M532.81,102.55V73.51c0-14.69-7.8-16.53-12.85-16.53c-11.02,0-16.99,16.07-19.74,31.79h-0.58V23.7h-17.56v1.26
		c10.44,0,11.48,0,11.48,11.71v65.88c0,11.48-1.03,11.71-11.48,11.71v1.26h29.04v-1.26c-9.18,0-11.02-0.11-11.36-7.23
		c0.69-16.76,5.97-47.17,18.48-47.17c4.71,0,8.49,2.29,8.49,13.66v29.04c0,11.48-1.49,11.71-11.48,11.71v1.26h29.04v-1.26
		C533.16,114.26,532.81,114.03,532.81,102.55"/>
	<path class="st0" d="M161.89,40.65l1.37,1.56l1.49-1.68c0.76-0.86,1.59-1.66,2.46-2.41l1.57-1.34l-1.58-1.38
		c-0.76-0.67-1.49-1.38-2.17-2.11l-1.78-1.93l-1.47,1.63c-0.63,0.7-1.32,1.38-2.03,2.01l-2.03,1.78l1.67,1.42
		C160.29,38.96,161.12,39.78,161.89,40.65"/>
	<path class="st0" d="M469.11,114.61c-7.46,0-6.31-12.17-6.31-23.76V75.92c0-13.77-7-19.05-18.25-19.05
		c-12.51,0-20.08,8.15-23.41,11.71l7.35,10.82l1.24-0.7c-7.66-11.77,3.46-20.57,14.48-20.57c9.98,0,12.51,7.92,12.51,17.79v3.56
		l-34.32,10.67c0,10.67,2.99,26.29,15.73,26.29c9.18,0,14.81-12.29,18.14-22.5h0.46v8.15c0,8.03,2.99,14.58,11.13,14.58
		c6.01,0,9.61-3.88,11.47-10.64l-1.74-0.44C476.1,110.87,473.48,114.61,469.11,114.61 M456.71,87.29
		c-3.1,10.45-7.46,25.25-16.07,25.25c-11.13,0-12.05-18.59-12.05-22.26l28.12-9.19V87.29z"/>
	<polygon class="st0" points="48.93,12.21 35.38,0 32.37,3.47 48.31,12.9 	"/>
</g>
</svg>
